<?xml version="1.0" encoding="UTF-8"?>
<svg id="Réteg_1" data-name="Réteg 1" xmlns="http://www.w3.org/2000/svg" viewBox="0 0 280.89 243.78">
  <defs>
    <style>
      .cls-1 {
        fill: #130000;
      }

      .cls-2 {
        fill: #7a7a7a;
      }
    </style>
  </defs>
  <path class="cls-1" d="M156.79,118.5c29.93,40.84,52.32,71.51,63.3,88.73,3.32,5.21,11.14,17.93,27.46,28.43,4.9,3.15,9.71,5.57,14.12,7.45l-91.03-.68c.97-.29,8.84-2.78,11.77-10.15,2.74-6.9-1-12.68-1.57-13.54l-56.5-81.9c-17.61,27.68-35.22,55.35-52.84,83.03-.46.95-4.13,8.92,1.05,16.47,3.29,4.8,8.34,6.8,10.2,7.45l-2.36-.03-61.2-.65c6.64-2.84,15.15-7.29,23.54-14.21,4.52-3.73,8.13-7.46,10.99-10.83l65.13-96.12v-54.83c.03-1.61-.02-3.83-.35-6.45-.29-2.32-.56-4.46-1.47-6.86-1.29-3.4-3.21-5.59-4.46-7-5.59-6.31-12.83-8.68-15.69-9.48h84.75c-2.49.47-6.47,1.54-10.67,4.21-1.42.9-4.59,3.08-7.38,6.62-4.21,5.34-6.26,11.17-6.31,16.39-.16,17.98-.33,35.96-.49,53.94Z"/>
  <path class="cls-2" d="M141.04,242.96c33.58-69.33,67.16-138.67,100.74-208,2.89-6,9.14-16.83,21.33-25.48,6.55-4.65,12.9-7.32,17.78-8.89-31.8-.2-63.6-.4-95.41-.59,2.95.46,8.21,1.66,13.63,5.33,0,0,6.57,4.45,10.67,11.85,6.06,10.95,4.58,26.68-3.56,40.89-18.37,36.54-36.74,73.09-55.11,109.63-21.33-39.9-42.67-79.8-64-119.7-.6-.9-10.15-15.68-2.96-31.41C89.48,4.92,100.35.78,102.52,0L0,.59c5.24,2.81,11.75,6.97,18.37,13.04,8.32,7.62,13.76,15.46,17.19,21.33l105.48,208Z"/>
</svg>